<svg width="66" height="65" viewBox="0 0 66 65" fill="none" xmlns="http://www.w3.org/2000/svg">
<path d="M1.3033 36.2759C1.28458 36.1628 1.2242 36.0607 1.13404 35.9899C1.04387 35.919 0.93046 35.8845 0.816104 35.893C0.701748 35.9016 0.594733 35.9526 0.516119 36.0361C0.437506 36.1196 0.392982 36.2295 0.391313 36.3441V36.3876C0.428536 36.6916 0.471962 37.008 0.51539 37.3058C0.536583 37.4094 0.592924 37.5026 0.674882 37.5695C0.756841 37.6364 0.85939 37.6729 0.965183 37.6729C1.07098 37.6729 1.17353 37.6364 1.25548 37.5695C1.33744 37.5026 1.39378 37.4094 1.41498 37.3058C1.42424 37.2524 1.42424 37.1978 1.41498 37.1445C1.37155 36.8467 1.33432 36.5241 1.2971 36.2511M1.07996 32.659C1.0669 32.5472 1.01324 32.4441 0.929172 32.3693C0.845109 32.2945 0.736496 32.2532 0.623962 32.2532C0.511428 32.2532 0.402816 32.2945 0.318752 32.3693C0.234688 32.4441 0.181028 32.5472 0.167969 32.659C0.167969 32.9692 0.167969 33.2794 0.167969 33.5896C0.167969 33.7113 0.216334 33.8281 0.302431 33.9142C0.388528 34.0003 0.505307 34.0487 0.627067 34.0487C0.748827 34.0487 0.865596 34.0003 0.951693 33.9142C1.03779 33.8281 1.08616 33.7113 1.08616 33.5896C1.08616 33.298 1.08616 32.9816 1.08616 32.6838L1.07996 32.659ZM1.29089 29.0669C1.29984 28.9592 1.27056 28.8519 1.20819 28.7637C1.14582 28.6756 1.05437 28.6122 0.949904 28.5848C0.845438 28.5574 0.734652 28.5676 0.637026 28.6138C0.539399 28.66 0.461186 28.7392 0.416134 28.8373C0.398076 28.8768 0.385542 28.9185 0.378902 28.9614C0.341678 29.2716 0.316866 29.5818 0.285846 29.8858C0.277072 29.996 0.308393 30.1058 0.374055 30.1948C0.439717 30.2838 0.535303 30.3461 0.643236 30.3702C0.751169 30.3944 0.864196 30.3788 0.961529 30.3262C1.05886 30.2737 1.13396 30.1878 1.17301 30.0843C1.17652 30.043 1.17652 30.0015 1.17301 29.9602C1.21851 29.679 1.25987 29.3895 1.2971 29.0917L1.29089 29.0669ZM1.91129 25.5244C1.93275 25.4163 1.91459 25.304 1.86011 25.2082C1.80563 25.1123 1.71849 25.0393 1.6146 25.0024C1.51071 24.9655 1.39701 24.9672 1.29429 25.0073C1.19157 25.0473 1.10668 25.1229 1.05514 25.2204L1.01791 25.3135C0.949668 25.6175 0.887633 25.9339 0.819389 26.2192C0.800929 26.2967 0.800929 26.3775 0.819389 26.455C0.852844 26.5489 0.915984 26.6294 0.999253 26.6843C1.08252 26.7392 1.18139 26.7655 1.28092 26.7592C1.38045 26.7528 1.47521 26.7143 1.55089 26.6494C1.62656 26.5844 1.67903 26.4966 1.70035 26.3992C1.78721 26.1324 1.85545 25.8408 1.9237 25.5492L1.91129 25.5244ZM2.95356 22.0812C2.98831 21.9824 2.98824 21.8747 2.95336 21.7759C2.91848 21.6772 2.85089 21.5933 2.7618 21.5383C2.67271 21.4832 2.56746 21.4603 2.46355 21.4733C2.35963 21.4863 2.26328 21.5344 2.19047 21.6097C2.14823 21.6549 2.11459 21.7075 2.09121 21.7648C1.98574 22.0564 1.88027 22.348 1.78721 22.6395C1.75476 22.7465 1.76243 22.8615 1.80876 22.9632C1.8551 23.0649 1.93692 23.1462 2.03891 23.1919C2.14089 23.2375 2.25602 23.2444 2.36273 23.2113C2.46943 23.1781 2.56039 23.1072 2.61854 23.0118L2.65577 22.9311C2.76744 22.6706 2.8605 22.3852 2.96597 22.106L2.95356 22.0812ZM4.39288 18.7807C4.44213 18.6829 4.45531 18.5708 4.4301 18.4643C4.40601 18.3751 4.35559 18.2953 4.28545 18.2353C4.2153 18.1752 4.12868 18.1378 4.03689 18.1277C3.94511 18.1177 3.85242 18.1355 3.77094 18.179C3.68946 18.2224 3.62297 18.2894 3.58016 18.3712C3.43747 18.6442 3.30098 18.9234 3.1707 19.2025C3.1203 19.3017 3.10813 19.4159 3.13652 19.5234C3.16491 19.6309 3.23187 19.7242 3.32463 19.7856C3.4174 19.8469 3.52948 19.872 3.63953 19.856C3.74959 19.84 3.84991 19.7841 3.92138 19.6989C3.9531 19.6667 3.97837 19.6288 3.99583 19.5872C4.13852 19.3452 4.2688 19.0723 4.40529 18.8055L4.39288 18.7807ZM6.21065 15.6787C6.26707 15.5837 6.28737 15.4716 6.26783 15.3629C6.2483 15.2543 6.19024 15.1562 6.1043 15.0869C6.01836 15.0175 5.9103 14.9815 5.79993 14.9853C5.68956 14.9892 5.58428 15.0327 5.5034 15.1079C5.48165 15.1255 5.46281 15.1465 5.44757 15.1699C5.28006 15.4305 5.10634 15.6911 4.94503 15.9517C4.8771 16.0425 4.84521 16.1553 4.8555 16.2683C4.8658 16.3812 4.91756 16.4864 5.00079 16.5635C5.08403 16.6405 5.19285 16.684 5.30628 16.6856C5.41971 16.6872 5.52971 16.6468 5.61507 16.5721C5.65806 16.538 5.6939 16.4959 5.72053 16.448C5.86943 16.1998 6.05556 15.9517 6.22306 15.7035L6.21065 15.6787ZM8.37584 12.8C8.44968 12.7114 8.48696 12.5981 8.48007 12.483C8.47319 12.3679 8.42265 12.2597 8.33878 12.1806C8.2549 12.1015 8.14399 12.0573 8.02868 12.0571C7.91337 12.0569 7.80234 12.1007 7.71822 12.1796L7.67479 12.2231C7.47627 12.4588 7.28394 12.6945 7.09162 12.9365C7.04043 13.023 7.01948 13.1241 7.03206 13.2239C7.04465 13.3236 7.09007 13.4163 7.16115 13.4874C7.23223 13.5585 7.32494 13.6039 7.42468 13.6165C7.52441 13.6291 7.6255 13.6081 7.71202 13.5569C7.73778 13.5374 7.76074 13.5144 7.78026 13.4887L8.37584 12.8ZM10.8574 10.1944C10.9165 10.1406 10.9598 10.0717 10.9827 9.99525C11.0057 9.91876 11.0074 9.83747 10.9877 9.76007C10.9689 9.68245 10.9301 9.6111 10.8752 9.55305C10.8203 9.49501 10.7513 9.4523 10.6748 9.42912C10.5984 9.40594 10.5172 9.4031 10.4394 9.42088C10.3615 9.43867 10.2896 9.47646 10.2308 9.53052L9.56701 10.1509C9.52139 10.1892 9.48375 10.2361 9.45625 10.289C9.42875 10.3418 9.41193 10.3995 9.40674 10.4589C9.40156 10.5182 9.40812 10.578 9.42604 10.6348C9.44395 10.6916 9.47288 10.7443 9.51117 10.7899C9.54946 10.8356 9.59636 10.8732 9.6492 10.9007C9.70204 10.9282 9.75978 10.945 9.81911 10.9502C9.87845 10.9554 9.93823 10.9488 9.99503 10.9309C10.0518 10.913 10.1046 10.8841 10.1502 10.8458L10.2122 10.7961L10.8574 10.1944ZM13.6244 7.88647C13.7202 7.82149 13.7875 7.72229 13.8124 7.60925C13.8373 7.49622 13.8181 7.37794 13.7585 7.27868C13.699 7.17943 13.6037 7.10674 13.4922 7.07555C13.3807 7.04436 13.2615 7.05703 13.1591 7.11097L13.0785 7.15441C12.8303 7.34052 12.5821 7.52665 12.3402 7.71897C12.256 7.79048 12.2005 7.88993 12.1837 7.99908C12.1669 8.10824 12.1901 8.21978 12.2489 8.31326C12.3077 8.40674 12.3982 8.47588 12.5038 8.50802C12.6095 8.54017 12.7232 8.53315 12.8241 8.48826L12.911 8.43242L13.6244 7.88647ZM16.6333 5.91361C16.7252 5.85336 16.7923 5.76218 16.8227 5.65665C16.853 5.55111 16.8445 5.4382 16.7987 5.33838C16.753 5.23857 16.6729 5.15848 16.5732 5.11263C16.4734 5.06677 16.3605 5.0582 16.2549 5.08847L16.1743 5.12569C15.9075 5.28079 15.6407 5.4359 15.3801 5.5972C15.3022 5.64337 15.2398 5.71186 15.2012 5.79384C15.1625 5.87582 15.1494 5.96751 15.1634 6.05704C15.1775 6.14658 15.218 6.22983 15.2799 6.29606C15.3418 6.36228 15.4221 6.40843 15.5104 6.42853C15.5689 6.44478 15.6303 6.4482 15.6902 6.43857C15.7502 6.42893 15.8074 6.40646 15.8579 6.3727L16.6333 5.91361ZM19.847 4.29436C19.9182 4.26258 19.9804 4.21364 20.028 4.15193C20.0757 4.09021 20.1073 4.01764 20.12 3.94073C20.1295 3.86211 20.1186 3.78238 20.0882 3.70925C20.0578 3.63612 20.009 3.57209 19.9466 3.52339C19.8842 3.47468 19.8102 3.44296 19.7318 3.43129C19.6535 3.41963 19.5735 3.42842 19.4996 3.45682L18.6558 3.83527C18.5567 3.88641 18.4796 3.9719 18.4388 4.07578C18.3981 4.17965 18.3966 4.29479 18.4346 4.39968C18.4726 4.50458 18.5475 4.59205 18.6453 4.64574C18.7431 4.69943 18.8571 4.71567 18.966 4.69142C18.9947 4.68659 19.0222 4.67603 19.0467 4.66039L19.847 4.29436ZM23.2282 3.05356C23.345 3.02394 23.4453 2.94913 23.5069 2.84558C23.5686 2.74203 23.5866 2.61824 23.557 2.50142C23.5274 2.38459 23.4526 2.28431 23.349 2.22265C23.2455 2.16098 23.1217 2.14299 23.0048 2.17261C22.7008 2.24705 22.3844 2.36493 22.0742 2.46419C21.9822 2.49815 21.9024 2.5586 21.8447 2.63791C21.7898 2.71748 21.7614 2.81236 21.7636 2.90903C21.7657 3.00569 21.7984 3.09919 21.8568 3.17621C21.9153 3.25323 21.9966 3.30983 22.0891 3.33794C22.1816 3.36604 22.2806 3.36423 22.372 3.33275C22.6636 3.2521 22.9552 3.15903 23.2406 3.07217L23.2282 3.05356ZM26.7272 2.20362C26.8309 2.18243 26.924 2.12608 26.9909 2.04413C27.0578 1.96217 27.0944 1.85962 27.0944 1.75383C27.0944 1.64803 27.0578 1.54548 26.9909 1.46353C26.924 1.38157 26.8309 1.32523 26.7272 1.30403H26.5659L25.6539 1.48395C25.5412 1.51353 25.444 1.58487 25.3819 1.68349C25.3199 1.78211 25.2976 1.90065 25.3197 2.01506C25.3418 2.12948 25.4066 2.2312 25.5009 2.29963C25.5952 2.36805 25.712 2.39805 25.8277 2.38354L26.7272 2.20362ZM30.3007 1.75693C30.4093 1.74498 30.5101 1.69466 30.585 1.61505C30.6598 1.53543 30.7038 1.43174 30.7091 1.32259C30.7143 1.21344 30.6804 1.106 30.6135 1.01958C30.5466 0.93317 30.4511 0.873445 30.3441 0.851155C30.3072 0.845022 30.2695 0.845022 30.2325 0.851155C29.9223 0.851155 29.6121 0.894579 29.3081 0.925599C29.2045 0.939645 29.1088 0.988612 29.0369 1.0644C28.9649 1.14018 28.9209 1.23826 28.9123 1.34241C28.9036 1.44656 28.9307 1.55055 28.9891 1.6372C29.0476 1.72385 29.1338 1.78798 29.2336 1.81897C29.2888 1.83108 29.346 1.83108 29.4011 1.81897C29.7113 1.81897 30.0091 1.79415 30.3131 1.77554L30.3007 1.75693ZM33.899 1.70731C34.0092 1.71347 34.1177 1.67804 34.203 1.60804C34.2744 1.54927 34.3263 1.47035 34.352 1.38158C34.3778 1.29282 34.3761 1.19835 34.3473 1.11054C34.3185 1.02273 34.2638 0.94566 34.1905 0.889418C34.1171 0.833176 34.0285 0.800387 33.9363 0.795321C33.6261 0.795321 33.3159 0.795321 33.0119 0.795321C32.8918 0.785449 32.7726 0.823696 32.6807 0.901649C32.5888 0.979602 32.5316 1.09086 32.5218 1.21098C32.5119 1.33109 32.5501 1.45022 32.6281 1.54214C32.706 1.63405 32.8173 1.69123 32.9374 1.7011H32.9995L33.899 1.70731ZM37.4849 2.06092C37.5893 2.07641 37.6959 2.05546 37.7866 2.0016C37.8774 1.94774 37.9468 1.86427 37.9832 1.76522C38.0196 1.66618 38.0208 1.5576 37.9865 1.45779C37.9523 1.35797 37.8847 1.27301 37.7951 1.21719C37.7421 1.18481 37.683 1.16369 37.6214 1.15514L36.7032 1.02487C36.6219 1.01607 36.5396 1.0286 36.4646 1.06124C36.3895 1.09387 36.3242 1.14547 36.2752 1.21098C36.2296 1.27563 36.2016 1.35096 36.1937 1.42965C36.1858 1.50834 36.1984 1.58773 36.2302 1.66013C36.2621 1.73252 36.312 1.79545 36.3754 1.84285C36.4387 1.89025 36.5131 1.92049 36.5916 1.93064L37.4849 2.06092ZM41.0026 2.81162C41.1113 2.839 41.2262 2.82568 41.3257 2.77419C41.4252 2.72269 41.5025 2.63658 41.5429 2.53207C41.5834 2.42756 41.5842 2.31187 41.5452 2.2068C41.5063 2.10173 41.4302 2.01455 41.3314 1.96167L41.2446 1.93064C40.9468 1.84999 40.6242 1.76934 40.345 1.7011C40.2352 1.67182 40.1184 1.68487 40.0178 1.73768C39.9172 1.79048 39.8401 1.87918 39.8018 1.98617C39.7636 2.09316 39.7669 2.21063 39.8112 2.31527C39.8555 2.4199 39.9375 2.50405 40.041 2.55104C40.0691 2.56981 40.1008 2.58249 40.134 2.58826C40.438 2.67512 40.7296 2.74958 41.015 2.83023L41.0026 2.81162ZM44.4148 3.96555C44.5225 4.00187 44.6398 3.99693 44.7441 3.95171C44.8484 3.90648 44.9322 3.82418 44.9793 3.72072C45.0264 3.61727 45.0335 3.50003 44.9991 3.39169C44.9647 3.28334 44.8914 3.1916 44.7932 3.13422H44.756L43.8937 2.7992C43.7921 2.7649 43.6818 2.76722 43.5817 2.80575C43.4817 2.84427 43.3983 2.91658 43.346 3.01013C43.2937 3.10368 43.2758 3.2126 43.2954 3.31798C43.3149 3.42336 43.3708 3.51857 43.4532 3.58711C43.4901 3.61711 43.5321 3.64022 43.5773 3.65535L44.4148 3.96555ZM47.6781 5.49172C47.7727 5.5466 47.884 5.5654 47.9914 5.54462C48.0988 5.52384 48.195 5.46489 48.2623 5.37867C48.3296 5.29246 48.3634 5.1848 48.3576 5.07557C48.3517 4.96635 48.3064 4.86295 48.2302 4.78448C48.196 4.74495 48.1537 4.71322 48.1062 4.69142L47.2872 4.25714C47.191 4.21191 47.082 4.2015 46.9789 4.2277C46.8758 4.25389 46.7851 4.31505 46.7221 4.40074C46.6591 4.48644 46.6278 4.59134 46.6336 4.69754C46.6393 4.80373 46.6818 4.90464 46.7537 4.98301C46.7891 5.02122 46.8312 5.05274 46.8778 5.07607L47.6781 5.49172ZM50.7367 7.38395C50.8309 7.44528 50.9444 7.46987 51.0556 7.45306C51.1669 7.43624 51.268 7.37918 51.3399 7.29271C51.4119 7.20625 51.4496 7.0964 51.4458 6.98399C51.4421 6.87158 51.3973 6.76443 51.3198 6.6829L51.2578 6.63327L50.4947 6.11833C50.3984 6.04593 50.2774 6.01475 50.1581 6.03162C50.0388 6.04849 49.9312 6.11203 49.8588 6.20828C49.7864 6.30454 49.7552 6.42562 49.7721 6.54487C49.7889 6.66413 49.8525 6.77181 49.9487 6.84421L49.9922 6.88143C50.2589 7.06134 50.5381 7.23505 50.7491 7.40256L50.7367 7.38395ZM53.5657 9.61118C53.6434 9.68316 53.7439 9.72562 53.8496 9.73118C53.9554 9.73674 54.0598 9.70504 54.1446 9.6416C54.2295 9.57816 54.2894 9.487 54.314 9.38396C54.3385 9.28092 54.3262 9.17252 54.2791 9.07763C54.2549 9.01947 54.2165 8.9683 54.1675 8.92874C53.9379 8.724 53.7022 8.52548 53.4664 8.30834C53.3843 8.24342 53.2826 8.20812 53.1779 8.20812C53.0732 8.20812 52.9716 8.24342 52.8894 8.30834C52.8363 8.35138 52.7935 8.40575 52.764 8.46747C52.7346 8.52919 52.7193 8.5967 52.7193 8.66507C52.7193 8.73345 52.7346 8.80096 52.764 8.86268C52.7935 8.9244 52.8363 8.97875 52.8894 9.02179C53.1252 9.23893 53.3547 9.43126 53.5781 9.62979L53.5657 9.61118ZM56.1217 12.1486C56.1975 12.2262 56.2982 12.2744 56.4061 12.2848C56.514 12.2953 56.6222 12.2671 56.7113 12.2054C56.8005 12.1438 56.865 12.0525 56.8933 11.9479C56.9217 11.8432 56.912 11.7319 56.8662 11.6337C56.847 11.6002 56.8241 11.569 56.7979 11.5406C56.5932 11.3111 56.3823 11.0815 56.1775 10.8582C56.0969 10.7788 55.9899 10.732 55.8769 10.7268C55.7639 10.7215 55.6529 10.7581 55.5653 10.8296C55.4776 10.9011 55.4194 11.0025 55.4019 11.1142C55.3844 11.226 55.4087 11.3402 55.4703 11.4352L55.5137 11.491C55.7309 11.7267 55.9294 11.9439 56.1217 12.1672V12.1486ZM58.3675 14.9652C58.4311 15.0482 58.5211 15.107 58.6226 15.1319C58.7241 15.1569 58.8311 15.1464 58.9258 15.1023C59.0206 15.0582 59.0975 14.983 59.1437 14.8893C59.19 14.7955 59.2029 14.6888 59.1803 14.5868C59.1639 14.5325 59.141 14.4804 59.112 14.4317C58.9321 14.1835 58.7522 13.9292 58.5661 13.6872C58.5025 13.6029 58.4118 13.543 58.3092 13.5178C58.2067 13.4926 58.0986 13.5035 58.0031 13.5486C57.9076 13.5938 57.8307 13.6705 57.7852 13.7658C57.7397 13.8611 57.7285 13.9692 57.7534 14.0718C57.7717 14.1314 57.7989 14.1879 57.834 14.2393C58.0263 14.4937 58.2062 14.7357 58.38 14.9838L58.3675 14.9652ZM60.2722 18.0176C60.324 18.1084 60.4054 18.1789 60.5027 18.2172C60.6001 18.2555 60.7076 18.2595 60.8075 18.2283C60.9074 18.1972 60.9936 18.1329 61.052 18.0461C61.1103 17.9592 61.1373 17.855 61.1283 17.7508C61.1184 17.6905 61.0996 17.6319 61.0725 17.5771C60.9236 17.3041 60.7685 17.0374 60.6134 16.7706C60.552 16.6778 60.4591 16.6104 60.3518 16.581C60.2445 16.5516 60.1302 16.5622 60.0302 16.6107C59.9301 16.6592 59.851 16.7424 59.8077 16.8449C59.7643 16.9473 59.7596 17.062 59.7945 17.1676L59.8317 17.2359C59.993 17.5151 60.1419 17.7756 60.2846 18.0362L60.2722 18.0176ZM61.8046 21.2747C61.8518 21.3743 61.9333 21.4537 62.0343 21.4981C62.1352 21.5426 62.2488 21.5493 62.3542 21.5169C62.4596 21.4845 62.5499 21.4153 62.6084 21.3218C62.667 21.2283 62.69 21.1169 62.6731 21.0079V20.9272C62.5552 20.6419 62.4374 20.3565 62.3133 20.0773C62.2578 19.9775 62.1671 19.9019 62.0589 19.8654C61.9507 19.8288 61.8328 19.8339 61.7281 19.8796C61.6235 19.9254 61.5397 20.0085 61.493 20.1127C61.4463 20.2169 61.4402 20.3348 61.4757 20.4433C61.5874 20.7349 61.7053 21.0141 61.817 21.2933L61.8046 21.2747ZM62.9461 24.6869C62.9771 24.7924 63.0449 24.8833 63.1373 24.9431C63.2296 25.0028 63.3404 25.0274 63.4493 25.0124C63.5583 24.9973 63.6582 24.9437 63.731 24.8612C63.8037 24.7787 63.8444 24.6728 63.8457 24.5628C63.8491 24.5236 63.8491 24.4841 63.8457 24.4449C63.765 24.1471 63.6782 23.8245 63.5913 23.5577C63.5524 23.4533 63.4768 23.3665 63.3787 23.3137C63.2805 23.2608 63.1665 23.2455 63.0578 23.2706C62.9492 23.2957 62.8534 23.3594 62.7883 23.4499C62.7232 23.5404 62.6933 23.6515 62.7041 23.7625C62.7012 23.781 62.7012 23.7998 62.7041 23.8183C62.7972 24.1285 62.8778 24.4139 62.9461 24.7055V24.6869ZM63.672 28.2107C63.688 28.3111 63.7369 28.4034 63.811 28.473C63.8851 28.5426 63.9802 28.5857 64.0814 28.5954C64.1506 28.6029 64.2206 28.5944 64.286 28.5705C64.3514 28.5465 64.4104 28.5079 64.4584 28.4575C64.5064 28.4071 64.5421 28.3463 64.5628 28.2798C64.5835 28.2133 64.5886 28.143 64.5777 28.0742C64.5343 27.7702 64.4847 27.4538 64.4288 27.156C64.4055 27.0489 64.3446 26.9536 64.2572 26.8875C64.1697 26.8214 64.0615 26.7887 63.952 26.7954C63.8426 26.8022 63.7391 26.8479 63.6605 26.9243C63.5818 27.0007 63.533 27.1027 63.5231 27.2119C63.52 27.249 63.52 27.2864 63.5231 27.3235C63.5975 27.6337 63.6409 27.9316 63.6844 28.2293L63.672 28.2107ZM63.9822 31.7966C63.9875 31.9076 64.0323 32.013 64.1085 32.0938C64.1847 32.1745 64.2874 32.2254 64.3978 32.2371C64.4622 32.2424 64.527 32.234 64.588 32.2125C64.6489 32.191 64.7046 32.1569 64.7514 32.1124C64.7983 32.0679 64.8352 32.014 64.8598 31.9542C64.8844 31.8945 64.8961 31.8302 64.8941 31.7656C64.8941 31.4554 64.8941 31.1452 64.8569 30.8412C64.8387 30.7288 64.7794 30.6271 64.6905 30.5559C64.6015 30.4848 64.4893 30.4492 64.3756 30.4562C64.262 30.4632 64.1549 30.5121 64.0753 30.5936C63.9957 30.6751 63.9492 30.7832 63.9449 30.897C63.9759 31.2135 63.9884 31.5112 63.9946 31.8152L63.9822 31.7966ZM63.8705 35.3887C63.8491 35.5072 63.8756 35.6293 63.9443 35.7282C64.0129 35.8271 64.118 35.8947 64.2365 35.9161C64.355 35.9375 64.4771 35.9109 64.576 35.8423C64.6749 35.7736 64.7425 35.6685 64.7639 35.55V35.4756C64.7639 35.1654 64.8135 34.8552 64.8321 34.545C64.8319 34.4298 64.7885 34.319 64.7103 34.2343C64.6322 34.1497 64.5251 34.0975 64.4104 34.0882C64.2956 34.0788 64.1815 34.1129 64.0907 34.1838C63.9999 34.2546 63.939 34.3569 63.9201 34.4706C63.9325 34.8118 63.9077 35.1095 63.8829 35.4073L63.8705 35.3887Z" fill="#FF0066"/>
<path d="M60.7556 40.8482C60.6394 41.0858 60.579 41.3468 60.579 41.6113C60.579 41.8758 60.6394 42.1368 60.7556 42.3744C60.5073 42.4166 60.274 42.5221 60.0784 42.6808C59.8828 42.8394 59.7314 43.0459 59.6389 43.2802C59.5366 43.4781 59.4776 43.6955 59.4658 43.918C59.4541 44.1405 59.4898 44.363 59.5707 44.5706L59.186 44.3907L58.6215 45.6315L62.2446 47.3376L62.865 46.0658L61.0596 45.222C60.5013 44.9552 60.3772 44.5706 60.5571 44.1984C60.737 43.8261 61.0348 43.7517 61.5559 43.9998L63.4171 44.8746L64.0375 43.6028L62.2384 42.759C61.6738 42.4923 61.5559 42.1076 61.7234 41.7416C61.891 41.3756 62.2074 41.2949 62.7285 41.5431L64.5897 42.4178L65.2101 41.146L63.1317 40.172C62.0088 39.6446 61.2271 40.0417 60.8363 40.8792M59.7754 49.1119C59.6815 49.2832 59.5377 49.4219 59.3631 49.5095C59.1885 49.597 58.9914 49.6293 58.7979 49.6021C58.6045 49.5748 58.4239 49.4893 58.2803 49.3569C58.1367 49.2245 58.0368 49.0515 57.9939 48.861C57.951 48.6704 57.9672 48.4713 58.0403 48.2901C58.1134 48.1089 58.2399 47.9544 58.403 47.8469C58.5661 47.7394 58.7581 47.6842 58.9534 47.6885C59.1487 47.6928 59.338 47.7565 59.4962 47.8711C59.5905 47.936 59.6708 48.0193 59.7321 48.116C59.7935 48.2127 59.8347 48.3207 59.8532 48.4337C59.8717 48.5467 59.8673 48.6623 59.84 48.7735C59.8128 48.8847 59.7634 48.9893 59.6947 49.0809L59.7754 49.1119ZM60.675 49.7696C60.8806 49.4231 60.9811 49.0244 60.9643 48.6219C60.9475 48.2194 60.8141 47.8305 60.5803 47.5024C60.3465 47.1743 60.0223 46.9213 59.6474 46.7741C59.2724 46.6269 58.8627 46.5918 58.4681 46.6731C58.0736 46.7545 57.7111 46.9487 57.425 47.2323C57.1388 47.5158 56.9412 47.8765 56.8562 48.2702C56.7713 48.664 56.8026 49.074 56.9463 49.4504C57.0901 49.8267 57.3401 50.1531 57.666 50.39C57.8998 50.5435 58.1621 50.6486 58.4372 50.699C58.7124 50.7494 58.9949 50.7441 59.2679 50.6833C59.541 50.6226 59.799 50.5077 60.0269 50.3454C60.2547 50.1831 60.4477 49.9767 60.5943 49.7385L60.675 49.7696ZM57.9266 53.1817C58.2247 52.9286 58.4355 52.5879 58.5291 52.2082C58.6226 51.8284 58.5942 51.4288 58.4477 51.0662L57.2876 51.4632C57.3618 51.6668 57.3647 51.8895 57.2957 52.0949C57.2267 52.3002 57.09 52.476 56.9079 52.5935C56.7259 52.7109 56.5093 52.763 56.2937 52.7412C56.0782 52.7193 55.8765 52.6249 55.7217 52.4733C55.5669 52.3218 55.4681 52.1221 55.4417 51.9071C55.4153 51.692 55.4628 51.4744 55.5763 51.2899C55.6898 51.1054 55.8627 50.9649 56.0666 50.8916C56.2704 50.8183 56.4931 50.8164 56.6982 50.8863L57.058 49.7199C56.6851 49.5615 56.2707 49.5291 55.8777 49.6276C55.4846 49.7261 55.1345 49.9502 54.8805 50.2659C54.6592 50.4531 54.4796 50.6846 54.3531 50.9454C54.2266 51.2062 54.1561 51.4906 54.1461 51.7803C54.1361 52.07 54.1867 52.3586 54.2949 52.6276C54.403 52.8965 54.5662 53.1398 54.774 53.342C54.9817 53.5441 55.2295 53.7005 55.5013 53.8012C55.7731 53.9019 56.063 53.9446 56.3523 53.9266C56.6416 53.9085 56.924 53.8302 57.1812 53.6966C57.4384 53.563 57.6649 53.377 57.846 53.1507L57.9266 53.1817ZM55.4016 55.6633C55.4887 55.5948 55.561 55.5092 55.6138 55.4118C55.6667 55.3144 55.699 55.2071 55.7089 55.0967C55.7188 54.9863 55.706 54.8751 55.6713 54.7698C55.6366 54.6645 55.5807 54.5674 55.507 54.4846C55.4388 54.3967 55.3529 54.3241 55.255 54.2713C55.157 54.2185 55.0491 54.1867 54.9382 54.178C54.8273 54.1692 54.7158 54.1837 54.6107 54.2204C54.5057 54.2572 54.4095 54.3155 54.3283 54.3915C54.2399 54.459 54.1665 54.544 54.1125 54.6412C54.0586 54.7385 54.0253 54.8458 54.0148 54.9565C54.0043 55.0672 54.0168 55.1788 54.0516 55.2845C54.0863 55.3901 54.1425 55.4874 54.2166 55.5703C54.3619 55.7137 54.5553 55.7982 54.7592 55.8073C54.9632 55.8165 55.1633 55.7497 55.3209 55.6199L55.4016 55.6633ZM52.0018 57.0902C51.7288 57.2764 51.4745 57.2453 51.338 57.053C51.2015 56.8607 51.2387 56.6249 51.611 56.3706L52.1073 56.0232L52.3058 56.3085C52.3472 56.4542 52.3399 56.6093 52.2851 56.7504C52.2302 56.8915 52.1307 57.0109 52.0018 57.0902ZM50.184 54.3915C49.6698 54.7364 49.2617 55.2176 49.0053 55.7812L49.9359 56.2899C50.0669 55.9227 50.3099 55.6058 50.6307 55.3842C51.0836 55.0677 51.4372 55.0988 51.6916 55.4214L51.034 55.8805C50.0165 56.5877 49.8366 57.2702 50.2585 57.8781C50.6804 58.4861 51.4 58.5854 52.1879 58.0395C52.3887 57.9242 52.5532 57.755 52.6628 57.551C52.7725 57.3471 52.8229 57.1166 52.8083 56.8855L53.0999 57.3074L54.1732 56.5629L52.9324 54.7327C52.1941 53.7153 51.2511 53.6719 50.184 54.4163V54.3915ZM48.9122 60.0682C50.0413 59.4478 50.3391 58.5854 49.9731 57.9402C49.179 56.5629 47.4357 58.2566 47.1565 57.7789C47.082 57.6486 47.1565 57.4501 47.5784 57.2143C47.9258 57.0076 48.3218 56.8963 48.7261 56.8917L48.6144 55.8557C48.0704 55.9014 47.5441 56.0712 47.0758 56.352C45.9839 56.9724 45.6675 57.8223 46.046 58.4799C46.8463 59.8696 48.5896 58.1573 48.8564 58.6288C48.9432 58.7715 48.8564 58.939 48.4469 59.1748C48.0219 59.419 47.5411 59.5493 47.051 59.5532L47.1689 60.5955C47.7832 60.5783 48.383 60.4054 48.9122 60.093V60.0682ZM44.0049 57.8657L44.7121 59.6649C44.9541 60.2853 44.7121 60.67 44.3523 60.8188C43.9925 60.9677 43.645 60.8188 43.4217 60.2605L42.6834 58.3993L41.3806 58.908L42.1933 60.9988C42.6586 62.1775 43.5334 62.4443 44.4453 62.0844C44.6549 62.0082 44.8461 61.8888 45.0064 61.7338C45.1668 61.5788 45.2927 61.3918 45.3759 61.1849L45.531 61.5881L46.7718 61.098L45.3077 57.3756L44.0049 57.8657ZM41.7466 61.7308C41.6392 61.8383 41.5038 61.9135 41.3558 61.948C41.2984 61.9626 41.2385 61.9646 41.1802 61.9538C41.122 61.943 41.0667 61.9197 41.0184 61.8854C40.97 61.8512 40.9296 61.8069 40.9001 61.7556C40.8705 61.7043 40.8524 61.6471 40.847 61.5881L40.5617 60.2915L41.455 60.093L41.2317 59.0693L40.3383 59.2616L40.115 58.2442L38.7439 58.542L38.9672 59.5594L38.3965 59.6897L38.6198 60.7134L39.1906 60.5893L39.476 61.9045C39.6931 62.9034 40.3879 63.2694 41.3868 63.0523C41.7228 62.9933 42.0362 62.843 42.2926 62.618L41.7466 61.7308ZM36.5167 60.8126C36.7117 60.7786 36.9125 60.8199 37.0783 60.9281C37.2441 61.0364 37.3627 61.2035 37.41 61.3958L35.7846 61.5881C35.7872 61.3906 35.8639 61.2013 35.9995 61.0577C36.1351 60.9141 36.3196 60.8266 36.5167 60.8126ZM38.7501 61.6192C38.7262 61.3387 38.6439 61.0664 38.5084 60.8197C38.373 60.573 38.1873 60.3574 37.9635 60.1868C37.7397 60.0161 37.4827 59.8942 37.2089 59.8289C36.9351 59.7636 36.6507 59.7564 36.374 59.8076C36.0916 59.8226 35.8154 59.8954 35.5623 60.0214C35.3092 60.1475 35.0847 60.3242 34.9027 60.5405C34.7207 60.7569 34.585 61.0083 34.504 61.2792C34.4231 61.5501 34.3986 61.8347 34.4321 62.1155C34.5686 63.3066 35.5923 64.0697 37.0068 63.9022C37.3223 63.8869 37.6306 63.8028 37.9102 63.656C38.1899 63.5092 38.4342 63.3032 38.626 63.0523L37.8009 62.376C37.6937 62.5072 37.5608 62.6151 37.4104 62.693C37.2599 62.7709 37.0951 62.8172 36.9261 62.8289C36.7172 62.878 36.4976 62.8529 36.3052 62.7578C36.1127 62.6627 35.9594 62.5036 35.8714 62.3078L38.7687 61.9666C38.7811 61.8549 38.7811 61.7184 38.7501 61.6192ZM32.9618 64.1504L34.6617 64.2062L32.9308 61.8611L34.6493 60.1985L32.9866 60.1488L31.51 61.4951L31.5969 58.6226L30.1948 58.5792L30.0211 64.0635L31.4294 64.107L31.4604 63.1205L31.8823 62.7173L32.9618 64.1504ZM28.5321 60.3411L28.5942 59.8634L27.2603 59.7083L26.7826 63.6851L28.1785 63.8526L28.4018 62.0224C28.3983 61.8896 28.4253 61.7577 28.4808 61.6369C28.5363 61.5161 28.6187 61.4096 28.7218 61.3257C28.8249 61.2418 28.9458 61.1827 29.0754 61.1529C29.2049 61.1231 29.3395 61.1234 29.4689 61.1539C29.5757 61.1673 29.6814 61.188 29.7853 61.2159L29.9342 59.9751C29.691 59.9274 29.44 59.9356 29.2004 59.999C28.9607 60.0624 28.7386 60.1794 28.5507 60.3411H28.5321ZM24.0529 62.2458C23.724 62.1713 23.5751 61.9604 23.631 61.7308C23.6868 61.5013 23.8791 61.371 24.3196 61.4703L24.909 61.6067L24.8346 61.948C24.7553 62.072 24.6387 62.1677 24.5016 62.2213C24.3644 62.2748 24.2138 62.2834 24.0715 62.2458H24.0529ZM24.8283 59.0879C24.2269 58.9371 23.5954 58.9564 23.0044 59.1438L23.2525 60.1798C23.612 60.0309 24.009 59.9984 24.3879 60.0868C24.9276 60.2108 25.1448 60.4962 25.0765 60.8933L24.2948 60.7196C23.085 60.4404 22.4336 60.763 22.2909 61.4827C22.1482 62.2023 22.5329 62.8041 23.4697 63.0213C23.6907 63.0965 23.9284 63.1079 24.1556 63.0542C24.3827 63.0004 24.5901 62.8836 24.7539 62.7173L24.636 63.2198L25.914 63.5176L26.4104 61.3462C26.7144 60.1054 26.1188 59.3795 24.847 59.0879H24.8283ZM21.5588 58.0581C21.3221 57.9429 21.0622 57.883 20.7989 57.883C20.5355 57.883 20.2757 57.9429 20.0389 58.0581C19.9913 57.8106 19.8815 57.5794 19.7198 57.3862C19.558 57.1929 19.3497 57.0441 19.1145 56.9538C18.9132 56.8568 18.694 56.8028 18.4707 56.7954C18.2475 56.7879 18.0251 56.827 17.8178 56.9103L17.9916 56.5257L16.7508 55.9797L15.1191 59.6401L16.3971 60.2109L17.2099 58.3993C17.4642 57.8285 17.8303 57.6982 18.2211 57.872C18.612 58.0457 18.674 58.3372 18.4445 58.8646L17.6007 60.7258L18.8849 61.2965L19.6977 59.4788C19.9458 58.9142 20.3181 58.7839 20.7027 58.9514C21.0874 59.119 21.1556 59.423 20.9198 59.9441L20.0761 61.8053L21.3603 62.376L22.2971 60.2853C22.8369 59.212 22.4336 58.4427 21.5775 58.0581H21.5588ZM13.6798 57.1213L14.995 56.9475C15.3183 56.9473 15.637 56.8715 15.9257 56.726C16.2144 56.5806 16.4651 56.3696 16.6577 56.11C17.2099 55.3221 16.8935 54.3481 15.9194 53.6657C15.5918 53.4009 15.1993 53.2285 14.7826 53.1663C14.3659 53.1041 13.9402 53.1544 13.5495 53.312L14.0893 54.4349C14.258 54.3613 14.4432 54.3335 14.6262 54.3542C14.8092 54.3749 14.9834 54.4434 15.1315 54.5528C15.4913 54.8134 15.5596 55.0988 15.3673 55.3718C15.2432 55.5455 15.0633 55.7068 14.4987 55.7812L11.8744 56.1534L11.3471 56.8979L14.6414 59.2182L15.3114 58.269L13.6798 57.1213ZM12.2901 50.8863L11.558 51.7486L12.2963 52.369L9.68442 55.471L10.8073 56.414L14.1451 52.4621L12.2901 50.8863ZM9.71544 51.1779C9.8549 51.3196 9.93611 51.5085 9.943 51.7073C9.94989 51.906 9.88197 52.1001 9.75266 52.2511L8.66077 51.0104C8.82635 50.9035 9.02552 50.8616 9.22013 50.8925C9.41473 50.9234 9.5911 51.025 9.71544 51.1779ZM10.3358 53.4919C10.5523 53.3119 10.7285 53.0883 10.853 52.8358C10.9775 52.5833 11.0476 52.3074 11.0587 52.0261C11.0698 51.7448 11.0217 51.4642 10.9175 51.2027C10.8133 50.9411 10.6553 50.7044 10.4537 50.5078C10.28 50.2846 10.0623 50.0996 9.81395 49.9642C9.56564 49.8288 9.29211 49.7461 9.0104 49.721C8.7287 49.696 8.44486 49.7293 8.17657 49.8187C7.90828 49.9082 7.6613 50.052 7.45099 50.241C6.55762 51.0414 6.52039 52.3132 7.45099 53.3803C7.64434 53.6286 7.88921 53.832 8.16874 53.9766C8.44828 54.1212 8.75584 54.2035 9.07023 54.2178L9.15088 53.1507C8.81088 53.1214 8.49635 52.9585 8.27612 52.6978C8.11792 52.5527 8.01435 52.3577 7.98273 52.1454C7.95111 51.9331 7.99336 51.7164 8.10241 51.5315L10.0443 53.7029C10.1497 53.6346 10.2614 53.5602 10.3358 53.4919ZM4.71503 49.9308L5.53396 51.0724L9.98842 47.8649L9.16329 46.7296L4.71503 49.9308ZM3.43701 48.0014L4.1939 49.1864L7.56887 47.0336L6.81198 45.8486L3.43701 48.0014ZM7.56266 46.2023C7.61238 46.2983 7.68134 46.3831 7.76526 46.4514C7.84918 46.5196 7.94625 46.5698 8.05043 46.5989C8.15461 46.628 8.26367 46.6354 8.37081 46.6205C8.47795 46.6056 8.58087 46.5689 8.67318 46.5125C8.76 46.4525 8.83333 46.3751 8.88847 46.2852C8.94361 46.1952 8.97934 46.0947 8.99336 45.9902C9.00738 45.8856 8.99939 45.7792 8.96989 45.6779C8.94039 45.5766 8.89004 45.4826 8.82207 45.4019C8.77605 45.3056 8.71034 45.22 8.62918 45.1507C8.54802 45.0814 8.45321 45.0298 8.35089 44.9994C8.24857 44.969 8.14101 44.9604 8.03516 44.9742C7.92931 44.988 7.82752 45.0238 7.73637 45.0793C7.64807 45.1391 7.57304 45.2165 7.51599 45.3066C7.45893 45.3966 7.42107 45.4976 7.40477 45.6029C7.38846 45.7083 7.39407 45.8159 7.42124 45.9191C7.44841 46.0222 7.49655 46.1186 7.56266 46.2023ZM5.86897 44.1611C5.76715 43.9171 5.61076 43.6996 5.41181 43.5254C5.21285 43.3511 4.97661 43.2248 4.72123 43.1561C4.84919 42.9391 4.91976 42.6931 4.92628 42.4412C4.93279 42.1894 4.87504 41.9401 4.75846 41.7168C4.6721 41.5122 4.54425 41.3277 4.38301 41.175C4.22177 41.0223 4.03063 40.9047 3.82166 40.8296L4.2001 40.6559L3.64795 39.4151L0 41.0654L0.583176 42.3434L2.39474 41.5803C2.9593 41.3259 3.33154 41.481 3.49905 41.8595C3.66655 42.2379 3.49905 42.5109 3.00274 42.7466L1.14154 43.6028L1.72472 44.8808L3.53628 44.0557C4.10084 43.8013 4.47308 43.9564 4.64059 44.3286C4.80809 44.7009 4.64059 44.9801 4.14427 45.2158L2.28307 46.072L2.86625 47.35L4.95079 46.4008C6.04269 45.861 6.25362 45.0111 5.86897 44.1611Z" fill="#660066"/>
<mask id="mask0_676_945" style="mask-type:luminance" maskUnits="userSpaceOnUse" x="11" y="31" width="45" height="16">
<path d="M11.4531 34.427C23.0732 30.5123 42.1008 30.7046 55.2719 34.2409L53.5472 46.4875C36.7964 43.1126 27.8875 43.9501 12.9793 46.3014C12.4147 42.1199 12.0115 38.6147 11.4531 34.427Z" fill="white"/>
</mask>
<g mask="url(#mask0_676_945)">
<path fill-rule="evenodd" clip-rule="evenodd" d="M20.2078 32.4231C20.915 32.2928 21.6223 32.1874 22.3357 32.0881C22.3729 32.7457 22.4164 33.3971 22.4598 34.0548C21.7525 34.154 21.0515 34.2533 20.3504 34.3774C20.3008 33.726 20.2512 33.0745 20.2078 32.4231ZM47.3378 32.6961L49.4409 33.0745C49.3665 33.7508 49.3044 34.4208 49.23 35.097L47.1517 34.7248C47.2137 34.0548 47.2695 33.3785 47.3378 32.6961ZM14.2147 33.6701C15.9084 33.2793 17.6083 32.907 19.3206 32.5844C19.3702 33.2358 19.426 33.8873 19.4757 34.5387C17.7882 34.8551 16.1069 35.2335 14.4318 35.6492C14.3636 34.9854 14.2891 34.3277 14.2147 33.6701ZM41.2703 31.8089C43.0074 32.0261 44.7321 32.2618 46.4568 32.541C46.3886 33.2172 46.3389 33.8935 46.2769 34.5759C44.577 34.3029 42.8709 34.0734 41.1524 33.8624C41.1958 33.1924 41.2331 32.51 41.2703 31.8213V31.8089ZM50.1978 33.2048C51.8936 33.5398 53.5811 33.8811 55.2603 34.2285C55.161 34.8985 55.0679 35.5623 54.9749 36.2324C53.3205 35.8849 51.6537 35.5479 49.9745 35.2211C50.0489 34.5635 50.1172 33.8935 50.1978 33.2172V33.2048ZM11.8882 38.0563C13.0297 37.6841 14.1837 37.3243 15.35 36.9954C15.4183 37.6531 15.4927 38.3107 15.5548 38.9621C14.4132 39.3095 13.2779 39.7004 12.155 40.1161C12.0743 39.4398 11.9751 38.7574 11.8882 38.0687V38.0563ZM20.4683 35.9097C21.6657 35.7236 22.8631 35.5623 24.0728 35.401C24.0728 36.0649 24.1349 36.7225 24.1783 37.3863C22.9809 37.529 21.796 37.6841 20.6172 37.864L20.4683 35.9097ZM47.0028 36.3192C48.1898 36.5219 49.3685 36.7287 50.539 36.9396L50.3157 38.9435C49.1576 38.7326 47.9933 38.5258 46.8228 38.3231C46.8849 37.6841 46.9469 37.0079 47.0028 36.3316V36.3192ZM16.0635 36.8155C17.2422 36.5488 18.4148 36.282 19.606 36.0711C19.6556 36.6915 19.7176 37.3677 19.7611 38.0191C18.5947 38.2301 17.4284 38.4968 16.262 38.7698C16.2 38.1308 16.1317 37.4794 16.0635 36.8279V36.8155ZM42.5607 35.6616C43.7581 35.8229 44.9492 35.9966 46.1466 36.1827C46.0908 36.859 46.0287 37.5352 45.9729 38.2114C44.8003 38.0315 43.6216 37.8702 42.4366 37.7151C42.4739 37.0451 42.5173 36.3627 42.5607 35.674V35.6616ZM51.2463 37.1009C52.4188 37.3305 53.5852 37.5724 54.7515 37.8144C54.6585 38.4844 54.5592 39.1544 54.4662 39.8183C53.3122 39.5763 52.1707 39.3344 51.0167 39.1048C51.0974 38.4782 51.1594 37.7771 51.2525 37.1133L51.2463 37.1009ZM12.3597 41.7477C12.9801 41.4871 13.6501 41.2204 14.3078 40.966C14.3822 41.6298 14.4629 42.2937 14.5373 42.9575C13.9169 43.2305 13.2593 43.522 12.6327 43.8074C12.5458 43.1312 12.459 42.4488 12.3659 41.7601L12.3597 41.7477ZM20.7599 39.4212C21.4382 39.3178 22.1206 39.2248 22.8072 39.142C22.8444 39.7935 22.8879 40.4511 22.9313 41.1087C22.2551 41.1893 21.585 41.27 20.9088 41.3755C20.8406 40.7241 20.7599 40.0726 20.7599 39.4212ZM29.4145 38.6519H31.4928C31.4928 39.3282 31.4928 40.0106 31.4928 40.6868H29.4455C29.4455 39.9982 29.4083 39.3282 29.3897 38.6519H29.4145ZM46.705 39.9672C47.375 40.0726 48.045 40.1905 48.7213 40.3084C48.653 40.9784 48.5848 41.6485 48.5103 42.3247C47.8527 42.2068 47.1827 42.0951 46.5189 41.9897L46.705 39.9672ZM15.0647 40.7551C16.6777 40.2836 18.2969 39.8865 19.9472 39.5763C19.9906 40.2277 20.0527 40.8792 20.1023 41.5306C18.4771 41.8358 16.8715 42.2377 15.2942 42.7341C15.1763 42.0703 15.0895 41.4127 15.015 40.7551H15.0647ZM49.4657 40.4325C51.0788 40.7427 52.6897 41.0715 54.2986 41.4189C54.2056 42.0827 54.1063 42.7527 54.0133 43.4166C52.4292 43.0774 50.841 42.7548 49.2486 42.4488C49.2982 41.7787 49.3479 41.1025 49.4161 40.4325H49.4657ZM12.8995 45.4515C13.9591 44.9213 15.0487 44.4531 16.1628 44.0494C16.2372 44.707 16.3054 45.3646 16.3799 46.016C15.2795 46.4421 14.2081 46.9395 13.1724 47.505C13.0297 46.8226 12.9429 46.1401 12.8498 45.4515H12.8995ZM21.0577 42.9203C22.2075 42.7672 23.3552 42.6307 24.5009 42.5108C24.5381 43.1746 24.5692 43.8322 24.6126 44.4899C23.4711 44.6015 22.3419 44.7256 21.2066 44.8745C21.1239 44.2293 21.0577 43.5779 21.0081 42.9203H21.0577ZM46.4072 43.5965C47.5301 43.7764 48.6592 43.9687 49.7759 44.1673L49.5526 46.1774C48.4483 45.985 47.3378 45.7927 46.2273 45.6252C46.2335 44.949 46.2955 44.2727 46.3575 43.5965H46.4072ZM16.8452 43.8322C17.9681 43.5469 19.091 43.2739 20.2326 43.0692C20.2822 43.7206 20.3318 44.372 20.3939 45.0234C19.2647 45.2157 18.1542 45.4949 17.0499 45.7865C16.9321 45.1351 16.8576 44.4837 16.7956 43.8322H16.8452ZM50.4646 44.3038C51.5751 44.5209 52.6794 44.7628 53.7899 45.0048L53.5107 47.0025C52.4188 46.7605 51.3269 46.5248 50.2226 46.3076L50.4646 44.3038ZM41.1586 34.9233C40.1598 33.2358 38.1187 32.7395 34.0861 35.1343C34.0541 35.1496 34.0191 35.1577 33.9837 35.1577C33.9483 35.1577 33.9133 35.1496 33.8813 35.1343C29.0236 32.6527 26.753 33.422 25.7479 35.3948C24.7429 37.3677 24.9352 40.6868 25.0965 43.094C25.1399 43.7516 25.1833 44.3348 25.1896 44.8311H27.8573V39.3592C27.853 38.8683 27.8737 38.3776 27.9193 37.8888C27.9456 37.5451 28.0123 37.2057 28.1178 36.8776C28.1978 36.6266 28.3171 36.39 28.4715 36.1765C28.6234 35.9738 28.8078 35.7977 29.0174 35.6554C29.2205 35.5192 29.4419 35.4127 29.675 35.339C29.9147 35.2684 30.1634 35.2328 30.4133 35.2335C30.6222 35.2296 30.8307 35.2525 31.0337 35.3018C31.2044 35.3426 31.3662 35.4141 31.5114 35.5127C31.6487 35.6118 31.7683 35.7335 31.865 35.8725C31.9681 36.023 32.0476 36.1882 32.1008 36.3626C32.1777 36.64 32.2235 36.9251 32.2373 37.2126C32.2373 37.591 32.2807 38.0625 32.2807 38.6333V44.8373H34.9422V39.4336C34.9379 38.949 34.9586 38.4644 35.0043 37.9819C35.0346 37.6306 35.1011 37.2834 35.2028 36.9458C35.2894 36.6876 35.4126 36.4431 35.5688 36.2199C35.7167 36.0068 35.9016 35.8219 36.1148 35.674C36.3053 35.5377 36.5142 35.4291 36.7352 35.3514C36.9594 35.2776 37.1939 35.2399 37.43 35.2397C37.7272 35.2356 38.0216 35.297 38.2924 35.4196C38.5453 35.5498 38.7594 35.7446 38.9128 35.9842C39.0655 36.2617 39.1585 36.5682 39.1857 36.8838C39.2464 37.3694 39.2734 37.8586 39.2664 38.3479V44.8187H41.9341C41.9341 44.3534 41.9341 43.795 41.9961 43.1808C42.1016 40.5813 42.2877 36.921 41.0966 34.9233H41.1586ZM33.9682 34.7C34.7713 34.2081 35.6187 33.7927 36.4994 33.4592C35.0766 33.3889 33.6601 33.3475 32.2497 33.3351C32.2497 32.6527 32.2497 31.9702 32.2497 31.2878C33.9992 31.2878 35.7549 31.356 37.5107 31.4491C37.5107 32.0261 37.5107 32.603 37.461 33.18C37.7524 33.1096 38.0492 33.0639 38.3482 33.0435L38.404 31.5111C39.1237 31.5732 39.8434 31.6352 40.563 31.7097C40.532 32.3301 40.5072 32.9194 40.47 33.5274C40.909 33.8231 41.2741 34.2158 41.5371 34.6752C42.2505 35.8787 42.4987 37.5972 42.5545 39.3468C43.6774 39.4895 44.7941 39.6384 45.9047 39.8059L45.7371 41.8408C44.6763 41.6857 43.6154 41.543 42.5483 41.4127C42.5483 41.9711 42.5049 42.517 42.4801 43.0257C43.5223 43.1622 44.5646 43.2925 45.582 43.4476C45.5262 44.1238 45.4704 44.8001 45.4083 45.4763C44.4033 45.3274 43.392 45.2033 42.3808 45.0793C42.3684 45.1257 42.341 45.1667 42.3029 45.1959C42.2647 45.2251 42.2179 45.2408 42.1699 45.2405H39.0679C39.0396 45.2406 39.0117 45.2349 38.9857 45.2239C38.9597 45.2129 38.9361 45.1968 38.9165 45.1766C38.8968 45.1563 38.8814 45.1324 38.8712 45.106C38.8609 45.0797 38.8561 45.0516 38.8569 45.0234V44.7132L37.9387 44.6326C37.9387 43.9501 37.976 43.2615 38.007 42.5728L38.8569 42.6473V41.0156L38.0566 40.9474C38.0566 40.2588 38.1063 39.5701 38.1249 38.8877L38.8569 38.9497V38.3293C38.8569 37.9385 38.8569 37.591 38.8197 37.2995L38.1993 37.2498L38.2427 35.8477L38.1187 35.7795C37.9075 35.6876 37.6788 35.6431 37.4486 35.6492H37.3866C37.3866 36.1641 37.3556 36.679 37.3432 37.194L35.5874 37.0947C35.5018 37.3904 35.4457 37.6938 35.4199 38.0005C35.4199 38.2114 35.3827 38.4534 35.3703 38.7202C35.9907 38.7202 36.6545 38.7822 37.2997 38.8256L37.2439 40.8854C36.6235 40.8419 36.0031 40.8047 35.3827 40.7737V42.3929L37.2439 42.5108L37.1881 44.5705C36.5677 44.5209 36.0031 44.4837 35.4075 44.4526V45.0234C35.4083 45.0516 35.4035 45.0797 35.3933 45.106C35.383 45.1324 35.3676 45.1563 35.348 45.1766C35.3283 45.1968 35.3048 45.2129 35.2788 45.2239C35.2528 45.2349 35.2248 45.2406 35.1966 45.2405H32.0946C32.037 45.2405 31.9818 45.2177 31.941 45.177C31.9003 45.1362 31.8774 45.081 31.8774 45.0234V44.3038H29.6316C29.6316 43.6337 29.6006 42.9575 29.5882 42.275H31.8774V38.6209C31.8774 38.0563 31.8774 37.5972 31.8402 37.2374C31.8402 37.1506 31.8402 37.0761 31.8402 37.0017H29.4951C29.4951 36.6356 29.4951 36.2634 29.4951 35.8911L29.3586 35.9718C29.19 36.0878 29.0413 36.2302 28.9181 36.3937C28.804 36.5542 28.7122 36.7296 28.6452 36.9148V37.0451H28.5955C28.5172 37.325 28.4653 37.6116 28.4404 37.9012C28.4404 38.1246 28.4032 38.3727 28.3908 38.6519H28.6886L28.7444 40.6744H28.3784V42.2688H28.7817C28.7817 42.9389 28.8251 43.6151 28.8375 44.2851H28.3784V45.0048C28.3793 45.0335 28.3742 45.0622 28.3636 45.0889C28.353 45.1156 28.3371 45.1399 28.3167 45.1603C28.2964 45.1806 28.2721 45.1966 28.2454 45.2072C28.2186 45.2178 28.19 45.2228 28.1613 45.2219H25.0593C25.0017 45.2219 24.9464 45.1991 24.9057 45.1583C24.865 45.1176 24.8421 45.0624 24.8421 45.0048C24.8421 44.4899 24.7987 43.826 24.7491 43.0878C24.6994 42.3495 24.656 41.6671 24.6312 40.904L23.775 40.9784L23.6634 38.9993L24.6312 38.9125C24.6603 38.0477 24.783 37.1886 24.9972 36.3502C24.9972 36.0028 24.9972 35.6492 24.9476 35.3018L25.4005 35.2583L25.4439 35.1653C25.7713 34.482 26.2994 33.915 26.9577 33.5398C25.7541 33.6432 24.5547 33.7652 23.3594 33.9059C23.3222 33.2483 23.2787 32.5906 23.2477 31.9268C24.9848 31.7159 26.7281 31.5297 28.4839 31.4057C28.4839 31.9764 28.5149 32.541 28.5273 33.1118C28.8225 33.0872 29.1193 33.0872 29.4145 33.1118L29.3772 31.3374L31.5486 31.263C31.5486 31.9454 31.5486 32.6279 31.5486 33.3041H30.6677C31.7936 33.6534 32.8792 34.1213 33.9062 34.7H33.9682ZM11.4663 34.3774L13.5385 33.8562C13.6067 34.5201 13.6874 35.1839 13.7618 35.8477L11.7331 36.4371C11.5842 35.7547 11.4912 35.066 11.4043 34.3774H11.4663Z" fill="#660066"/>
</g>
<path fill-rule="evenodd" clip-rule="evenodd" d="M27.6514 15.5235C27.5852 15.5027 27.5248 15.4666 27.4752 15.4181C27.4256 15.3695 27.3882 15.31 27.366 15.2443C27.3512 15.0908 27.3791 14.9362 27.4466 14.7976C27.539 14.5522 27.6446 14.3119 27.763 14.0779C27.836 13.9358 27.9189 13.7989 28.0112 13.6685C28.1539 13.4451 28.2531 13.29 28.2035 13.1287C28.1912 13.0938 28.1715 13.0619 28.1458 13.0351C28.1201 13.0084 28.089 12.9874 28.0546 12.9736C27.9791 12.9426 27.8944 12.9426 27.8189 12.9736C27.6405 13.119 27.4982 13.3038 27.4032 13.5134C27.1655 13.9515 26.9582 14.4055 26.7828 14.872V14.9217C26.7703 14.993 26.7414 15.0604 26.6983 15.1185C26.6553 15.1767 26.5992 15.224 26.5346 15.2567C26.4662 15.2792 26.3954 15.2938 26.3237 15.3001C26.0904 15.3108 25.8627 15.3752 25.6582 15.4881C25.4538 15.6011 25.2782 15.7597 25.1449 15.9515C25.6485 15.7964 26.1775 15.7416 26.7021 15.7902C27.2617 15.8635 27.7979 16.0606 28.2718 16.3672L28.3648 16.423L28.4517 16.4851C28.4566 16.4356 28.4566 16.3857 28.4517 16.3362C28.401 16.1739 28.314 16.0254 28.1973 15.9019C28.0714 15.7625 27.9197 15.6487 27.7506 15.5669L27.6514 15.5235ZM24.4811 20.1206C24.405 20.1282 24.33 20.1449 24.2578 20.1702C24.2282 20.1779 24.1967 20.1738 24.1701 20.1588C24.1435 20.1437 24.1238 20.1189 24.1151 20.0896C24.0505 19.812 24.0505 19.5234 24.1151 19.2458C24.1788 18.9088 24.2961 18.5842 24.4625 18.2842C24.6204 18.0044 24.8311 17.7579 25.0829 17.5584C25.3392 17.35 25.6315 17.1902 25.9453 17.0869C25.974 17.0789 26.0048 17.0821 26.0313 17.0959C26.0578 17.1098 26.078 17.1331 26.0879 17.1613L26.2368 17.6452C26.2416 17.6595 26.2435 17.6745 26.2423 17.6895C26.2411 17.7045 26.2369 17.7191 26.23 17.7324C26.223 17.7457 26.2135 17.7575 26.2018 17.767C26.1902 17.7766 26.1768 17.7837 26.1624 17.7879C25.8167 17.8906 25.5056 18.0858 25.2628 18.3525C25.0267 18.6167 24.8678 18.9408 24.8037 19.2893C24.7945 19.3987 24.7945 19.5087 24.8037 19.6181C24.8037 19.7236 24.8037 19.8476 24.8037 19.9717C24.8054 19.9869 24.804 20.0022 24.7996 20.0168C24.7951 20.0314 24.7877 20.045 24.7778 20.0566C24.768 20.0682 24.7558 20.0777 24.7421 20.0844C24.7284 20.0912 24.7135 20.095 24.6983 20.0958L24.4811 20.1206ZM20.4671 28.0803C20.4232 27.8193 20.3461 27.5649 20.2376 27.3234C20.0949 26.9698 19.6172 27.0256 19.3132 27.0753C18.8603 25.9275 20.0453 26.4549 20.554 26.579C20.3741 25.9586 20.9262 24.7922 19.7537 24.3393C19.2574 24.1408 19.2512 24.4634 18.9286 24.0229C18.9906 23.7437 18.9285 23.6693 19.3132 23.6135C19.977 23.508 20.4547 24.2339 20.008 23.0923C19.4869 21.7833 19.7847 20.2571 19.3876 19.1962C18.3019 19.6243 18.3702 20.344 17.8304 20.741L18.3268 20.7968C18.8479 20.8961 19.5676 21.4917 18.9472 21.7461C18.5005 21.9198 18.6245 21.2683 17.9049 21.4917C17.1852 21.715 17.2162 23.4956 17.2162 23.5018C17.2597 23.7499 17.6505 24.2028 17.8366 24.6619C18.4248 25.9401 18.8821 27.2746 19.2015 28.6449C19.635 28.5039 20.0512 28.3145 20.4423 28.0803H20.4671ZM33.1791 27.5157C33.1233 27.584 33.1791 27.5592 32.9806 27.4537L32.8069 27.3607L32.6456 27.2614C32.5711 27.218 32.5463 27.2118 32.5215 27.1249C32.7138 27.0753 32.8131 26.9388 32.9806 26.8892C33.0116 27.007 33.0426 27.4661 33.1667 27.5157H33.1791ZM32.8813 26.2315C32.8813 26.4487 31.3551 27.1249 30.5734 27.1249C30.3067 27.1249 29.5746 27.1249 29.4753 26.8705C29.4474 26.769 29.4287 26.6652 29.4195 26.5603C29.8538 26.3556 30.5982 26.4735 31.076 26.0702C31.1504 26.0144 31.5164 25.9399 31.6964 25.8779C31.8763 25.8159 32.2361 25.7228 32.2857 25.5677H32.3912C32.5463 25.6918 32.8565 26.0702 32.8565 26.2315H32.8813ZM31.5661 25.3444C31.3747 25.3862 31.1861 25.4401 31.0015 25.5057L30.7409 25.0155C30.7906 24.9473 30.7409 24.9783 30.803 25.0155L31.107 25.1769C31.411 25.3195 31.4358 25.2079 31.5413 25.3444H31.5661ZM38.3532 18.0919C38.8414 18.1129 39.3018 18.325 39.6349 18.6826C39.9681 19.0401 40.1472 19.5143 40.1338 20.0027C40.1383 20.5388 40.0283 21.0698 39.8112 21.5599C39.6593 21.9522 39.4768 22.3318 39.2652 22.6953C38.865 23.398 38.4129 24.0699 37.9127 24.7053C37.1683 25.6484 35.3133 27.7515 34.2648 27.7515C33.7251 27.7515 33.5637 27.0877 33.5141 26.6534C33.266 24.5378 31.7274 25.028 31.0325 24.5006C30.0275 23.7499 31.4048 22.3664 31.9941 21.7771C32.1249 21.6328 32.2636 21.4961 32.4098 21.3676C33.3001 20.5682 34.2616 19.8517 35.2823 19.2272C36.1961 18.6182 37.2389 18.2296 38.3284 18.0919H38.3532ZM35.9771 17.2358C36.4808 17.2141 36.9751 17.3774 37.3668 17.6949C36.9483 17.7959 36.5425 17.9436 36.157 18.1353C35.6076 18.3937 35.0769 18.6901 34.5688 19.0225L34.3268 19.1714L33.5948 19.6925C33.4251 19.8081 33.2615 19.9324 33.1047 20.0648C32.4827 20.534 31.8978 21.0505 31.3551 21.6096L30.9643 22.0438C30.5278 22.5005 30.2326 23.0736 30.1143 23.6941C29.9091 23.5498 29.7352 23.3655 29.603 23.1523C29.4708 22.9391 29.383 22.7013 29.345 22.4533L29.3947 22.2548C29.4753 21.9136 29.5746 21.5165 29.6676 21.1194L29.7545 20.772C29.9313 20.5359 30.1263 20.3139 30.3377 20.1082C30.6866 19.7539 31.0597 19.4243 31.4544 19.1218C32.1471 18.599 32.8938 18.1519 33.6816 17.7879C34.3982 17.4661 35.1679 17.279 35.9523 17.2358H35.9771ZM54.5456 22.8193C54.4145 23.0041 54.3023 23.2015 54.2106 23.4087C53.7982 23.9021 53.5779 24.5278 53.5902 25.1706C53.5836 25.5676 53.6821 25.9593 53.8756 26.306C53.9894 26.5062 54.1158 26.6989 54.254 26.8829C54.3535 27.1036 54.4784 27.3118 54.6263 27.5033C54.663 27.5352 54.7059 27.5591 54.7523 27.5736C54.7987 27.5881 54.8476 27.5928 54.8959 27.5876C54.9442 27.5824 54.991 27.5672 55.0332 27.5431C55.0754 27.519 55.1121 27.4865 55.1412 27.4475C55.3149 27.2614 55.2032 27.0629 55.1412 26.8892C55.0424 26.6976 54.9305 26.5131 54.8062 26.337C54.5287 26.0222 54.3687 25.6211 54.3533 25.2017C54.3533 24.4014 54.7504 24.1284 55.0482 23.4894C55.2033 23.1419 55.2467 23.0551 55.0109 22.8317C54.9428 22.7715 54.8544 22.7393 54.7634 22.7416C54.6725 22.7439 54.5858 22.7805 54.5208 22.8442L54.5456 22.8193ZM44.2842 23.8058C44.2463 23.8417 44.2161 23.885 44.1955 23.933C44.1748 23.981 44.1642 24.0327 44.1642 24.0849C44.1642 24.1372 44.1748 24.1889 44.1955 24.2369C44.2161 24.2849 44.2463 24.3282 44.2842 24.3641C44.2842 24.4014 44.7371 24.5875 44.8488 24.6495C45.3515 25.0452 45.971 25.2633 46.6107 25.2699L47.1691 25.1955C47.369 25.1422 47.5624 25.0673 47.7461 24.9721C48.0314 24.8232 48.292 24.5875 48.596 24.4324C48.7573 24.3455 49.0179 24.2463 49.0241 23.9981C49.0303 23.7499 48.8069 23.477 48.323 23.7127C47.6716 24.0291 47.1195 24.7612 46.0524 24.4324C45.6305 24.2959 45.3699 24.0229 44.8984 23.812C44.6751 23.7685 44.4269 23.6569 44.2594 23.8306L44.2842 23.8058ZM49.5142 29.3894L50.2028 29.5072L50.116 29.4142C50.2525 29.3273 50.5254 29.2218 50.786 29.0481C50.9721 29.2281 51.0342 29.3832 51.2389 29.5755L51.4002 29.7306C52.8643 30.0036 54.0121 30.2517 54.7193 30.4068C55.2335 30.1425 55.646 29.7159 55.8928 29.1931C56.1396 28.6703 56.2069 28.0807 56.0842 27.5157C55.7864 26.2253 54.7628 26.1385 55.0978 24.6185C55.2672 24.1998 55.4881 23.8038 55.7554 23.4397C56.0198 22.8966 56.0919 22.2798 55.9601 21.6902C55.8702 21.3301 55.7051 20.9932 55.4757 20.7014C55.2463 20.4097 54.9578 20.1698 54.629 19.9976C54.3003 19.8253 53.9389 19.7245 53.5684 19.7019C53.198 19.6793 52.827 19.7353 52.4797 19.8662C51.6084 20.2188 50.8988 20.8819 50.4882 21.7274C50.4406 21.8434 50.3803 21.9536 50.3083 22.0563C50.4324 22.1307 50.7426 22.1927 51.0652 22.3665C51.7047 22.6997 52.2193 23.2306 52.5324 23.8802C52.8454 24.5298 52.9401 25.2632 52.8023 25.971C52.7632 26.1833 52.703 26.3911 52.6224 26.5914C52.392 27.2112 52.0103 27.7636 51.5119 28.1982C50.9324 28.7391 50.2423 29.1476 49.4894 29.3956L49.5142 29.3894ZM43.2606 28.4712C44.7681 28.6511 46.2137 28.8558 47.5413 29.0606C47.9966 29.0056 48.4468 28.9143 48.8876 28.7876C49.8116 28.5506 50.6448 28.0455 51.2823 27.3358C51.5876 27.0144 51.8165 26.6282 51.9518 26.2061C52.0872 25.7839 52.1255 25.3367 52.064 24.8977C52.0343 24.7397 51.9928 24.5842 51.9399 24.4324C51.7133 23.8374 51.2781 23.3451 50.7154 23.0472C50.1527 22.7492 49.5009 22.6661 48.8814 22.8131C47.7088 23.1357 47.6406 23.8368 46.5487 23.8554C45.4568 23.874 45.2769 23.1109 44.1726 22.9124C43.7151 22.8265 43.243 22.8659 42.8061 23.0265C42.3693 23.187 41.9839 23.4627 41.691 23.8244C41.5426 24.3156 41.3473 24.7913 41.1078 25.2451C41.0985 25.3835 41.0985 25.5224 41.1078 25.6608C41.1886 26.4661 41.5749 27.2099 42.1873 27.7391C42.4983 28.0357 42.8517 28.2845 43.2358 28.4774L43.2606 28.4712ZM39.197 28.0741C40.0221 28.1362 40.841 28.2106 41.6413 28.2975C41.3682 28.0522 41.1302 27.7703 40.9341 27.4599C40.7196 27.1324 40.5603 26.7719 40.4626 26.3928C40.1878 26.834 39.8875 27.2587 39.563 27.6647L39.197 28.0741ZM35.4436 27.8694C36.3493 27.8694 37.2551 27.9438 38.1547 27.9997L38.2415 27.9252L39.2156 26.7961C39.321 26.6658 39.4141 26.5231 39.5072 26.3928C39.7967 25.9678 40.0619 25.5266 40.3013 25.0714L40.4005 24.8543C40.4827 24.412 40.6514 23.9904 40.8969 23.6135C41.0308 23.2299 41.1061 22.8283 41.1202 22.4223C41.1202 21.8701 41.1202 21.1443 40.5929 20.8092C40.3968 21.6501 40.0635 22.4529 39.6064 23.1854C39.4948 23.3777 39.4079 23.5266 39.2838 23.7127C38.5312 24.8688 37.6532 25.9383 36.6657 26.9016L35.7413 27.6584L35.4436 27.8694ZM31.1318 27.8694H32.0376L31.8266 27.7267C31.6901 27.7143 31.4482 27.8136 31.107 27.8818L31.1318 27.8694ZM25.7529 28.2354C27.1426 28.0989 28.6068 27.9935 30.1329 27.9128C29.6897 27.9027 29.2589 27.7648 28.8921 27.5157C28.6772 27.0806 28.5567 26.6049 28.5385 26.1199C28.5385 25.7042 29.0473 25.7352 29.1961 25.7228L30.1205 25.5925L29.9406 25.1148C29.6863 24.451 29.8414 24.4944 29.5187 24.2463C29.3069 24.0835 29.1262 23.8838 28.9852 23.6569L28.8549 23.9919C28.8239 24.0601 28.7991 24.1284 28.7681 24.2028C28.7387 24.2748 28.7056 24.3453 28.6688 24.4138V24.4758C28.6435 24.5157 28.6207 24.5571 28.6006 24.5999C28.4986 24.8362 28.3826 25.0661 28.2531 25.2885C28.1353 25.4995 28.005 25.698 27.8437 25.9524C27.5504 26.3897 27.2248 26.8044 26.8697 27.1931C26.5118 27.5707 26.1283 27.9231 25.7219 28.2478L25.7529 28.2354ZM15.7397 29.7182L16.9309 29.4824C16.9186 29.4399 16.9186 29.3947 16.9309 29.3521C16.9389 29.3063 16.9593 29.2636 16.99 29.2286C17.0206 29.1936 17.0602 29.1677 17.1046 29.1536C17.4706 29.0419 17.8242 28.9675 18.1717 28.893L18.5439 28.8124C18.5008 28.5231 18.4238 28.2399 18.3144 27.9686C18.0476 28.0803 17.0736 28.9861 17.0115 28.2292C17.0115 27.7825 18.0228 27.4537 18.1593 27.311C17.9237 26.5346 17.6335 25.7758 17.2907 25.0404C17.1286 24.7081 16.9484 24.3851 16.7509 24.0725C15.7893 22.6394 14.8898 21.0822 13.4504 20.0896C12.83 20.7968 12.83 22.4719 13.0782 23.3343C13.419 23.0581 13.8287 22.8801 14.2632 22.8193C14.6912 22.7697 15.0014 22.8193 15.2 23.2164C14.6478 24.0229 14.7719 22.931 13.2395 23.9919C13.5522 25.1675 13.9674 26.3134 14.4803 27.4165C14.927 27.2428 15.6032 26.8643 15.7831 27.3172C15.963 27.7701 15.1627 27.8632 14.7285 28.0431C14.9452 28.3382 15.1284 28.6565 15.2744 28.9923C15.3923 29.2032 15.5412 29.4638 15.7149 29.7306L15.7397 29.7182ZM13.9219 30.109L15.0262 29.8671C13.7854 28.0059 13.2333 25.121 11.9242 24.1098C11.6655 23.921 11.3727 23.784 11.0619 23.7065C10.7848 23.8004 10.5483 23.9866 10.3919 24.2339C10.1189 24.6681 10.3919 24.6495 10.001 24.9535C9.59156 24.8605 9.51711 24.7178 9.6598 24.2897C9.73001 23.9865 9.91158 23.7208 10.1685 23.5452L10.1003 23.3653C9.32479 23.4832 8.92152 23.1109 7.89166 23.5142C8.31973 24.389 10.3733 25.8841 10.8696 26.8767C11.4217 26.4673 10.8137 26.4859 12.1538 25.9586C12.5695 26.579 12.3089 26.4425 11.8002 26.8395C10.6276 27.7453 12.8052 28.4091 13.3512 29.5072C13.8103 29.2839 13.8661 28.8248 14.2756 29.2467C14.35 29.3149 14.3872 29.1102 14.3438 29.4266C14.3004 29.743 14.3438 29.5134 14.2259 29.6623L13.9219 30.109ZM11.7691 32.7457L10.7889 33.0249L10.2306 31.0706L11.2108 30.7915C11.2108 30.7915 12.1538 30.5123 13.8165 30.1338H13.0844C12.9045 29.9167 12.6998 29.6747 12.464 29.4204C11.9138 28.9888 11.4049 28.5069 10.944 27.981C10.0377 26.827 9.05304 25.7367 7.99712 24.7178C5.43488 22.0314 10.4787 22.4905 11.9863 23.3591L12.5074 23.6879C12.3039 22.9192 12.2574 22.1174 12.3709 21.3304C12.7618 17.1179 16.0499 21.411 16.5958 22.7945C16.8998 21.926 17.1852 19.3637 19.0774 18.6192C20.3803 18.1105 20.3182 20.7968 20.3865 21.7212C20.5044 23.1606 21.3233 24.3021 21.2054 25.7786C21.1558 26.399 21.2054 27.0194 21.162 27.6398C21.4678 27.3988 21.7392 27.117 21.9685 26.8023C22.0926 26.6348 22.167 26.5293 22.2415 26.4177C22.3159 26.306 22.3718 26.1881 22.4648 26.0144L22.5393 25.8841C22.5951 25.7881 22.6448 25.6886 22.6882 25.5863C22.9225 25.0298 23.0649 24.4389 23.11 23.8368C23.1246 23.2335 23.0747 22.6303 22.9611 22.0376C22.9611 21.8887 22.8991 21.6468 22.8495 21.38C22.7378 20.7596 22.6013 19.9965 22.5889 19.6739C22.5506 19.0404 22.6834 18.4082 22.9736 17.8437C23.2892 17.2594 23.7428 16.761 24.295 16.392C24.319 16.3733 24.3375 16.3484 24.3484 16.32C24.3594 16.2916 24.3623 16.2607 24.357 16.2307C24.3613 16.0648 24.4016 15.9018 24.4749 15.753C24.5927 15.5105 24.7647 15.2982 24.9774 15.1326C25.2011 14.9503 25.4582 14.8133 25.7343 14.7293C25.8591 14.6869 25.988 14.6577 26.119 14.6425L26.15 14.5618C26.15 14.4812 26.2306 14.3509 26.3299 14.14C26.3436 14.1145 26.354 14.0874 26.3609 14.0593C26.3696 14.0298 26.38 14.0008 26.3919 13.9725C26.4292 13.8856 26.4664 13.8111 26.5098 13.7305C26.6587 13.4637 26.7828 13.228 26.9441 12.9674C27.0192 12.8096 27.1222 12.6667 27.2481 12.5456C27.3805 12.4382 27.5352 12.3619 27.701 12.3222C27.935 12.2695 28.1801 12.3033 28.3911 12.4174C28.6021 12.5314 28.7646 12.718 28.8487 12.9426C28.9317 13.098 28.9655 13.275 28.9456 13.4501C28.9256 13.6252 28.8529 13.7901 28.737 13.9228C28.6717 14.0145 28.6117 14.1098 28.5571 14.2082C28.5199 14.2765 28.4827 14.3261 28.4517 14.3757C28.3922 14.4588 28.3422 14.5482 28.3028 14.6425L28.2283 14.8286L28.1353 15.0519L28.2407 15.1202C28.5979 15.3416 28.8742 15.6723 29.0286 16.0632C29.1656 16.3595 29.1834 16.6972 29.0783 17.0062C29.0783 17.0807 29.041 17.1241 29.1589 17.2606C29.2847 17.4204 29.3968 17.5906 29.4939 17.7693C29.5915 17.9455 29.6725 18.1303 29.7359 18.3215C29.8538 18.6767 29.9248 19.0459 29.9468 19.4196C30.0957 19.2769 30.2508 19.1404 30.4059 19.0101C30.6838 18.7682 30.9737 18.5405 31.2745 18.3277C31.8987 17.8801 32.5658 17.4956 33.266 17.1799C34.3951 16.6402 36.1694 16.1749 37.373 16.8077C37.6103 16.9201 37.8215 17.0807 37.9934 17.2792C38.1733 17.4281 38.4587 17.2171 39.4203 17.6018C39.8181 17.811 40.1595 18.1131 40.4154 18.4825C40.6714 18.8519 40.8344 19.2777 40.8907 19.7235C40.9651 20.2385 40.8907 20.071 41.0768 20.2323C41.3677 20.4988 41.5951 20.8273 41.7422 21.1935C41.8893 21.5596 41.9524 21.9541 41.9267 22.3478C41.9267 22.4533 41.9267 22.5712 41.9267 22.6829C42.0503 22.6081 42.1789 22.5418 42.3114 22.4843C42.804 22.2606 43.3435 22.1596 43.8837 22.1899C44.4239 22.2201 44.9488 22.3807 45.4134 22.658C45.8787 22.931 45.9655 23.1544 46.4742 23.1668C46.983 23.1792 47.1443 22.9682 47.4917 22.7139C47.9408 22.3833 48.4654 22.17 49.0179 22.0935C49.0737 22.0935 49.5142 22.0625 49.5266 22.0438C49.8211 21.3678 50.2165 20.7402 50.6992 20.1827C51.3502 19.5244 52.2055 19.1066 53.1249 18.9977C53.543 18.9632 53.9639 19.0074 54.3657 19.128C54.8881 19.2878 55.3649 19.5698 55.7566 19.9506C56.1482 20.3315 56.4434 20.8002 56.6178 21.318C56.7574 21.7477 56.8084 22.2012 56.7679 22.6511C56.7274 23.1011 56.5961 23.5382 56.382 23.9361C56.1028 24.4324 55.3956 25.0404 56.0408 25.8965C56.3677 26.2744 56.6127 26.7159 56.7604 27.1931C56.9424 27.8167 56.9408 28.4795 56.756 29.1022C56.5712 29.725 56.2109 30.2813 55.7182 30.7046L56.5247 30.8907L56.0532 32.8698L55.0606 32.634C55.0233 32.634 42.2369 29.532 31.0822 29.9787C24.5531 30.1854 18.0673 31.1176 11.7443 32.7581L11.7691 32.7457ZM24.3943 28.4029C24.7198 28.1852 25.0325 27.9491 25.3311 27.6957C25.7702 27.3084 26.1846 26.894 26.5719 26.4549C26.9057 26.0685 27.2047 25.6533 27.4652 25.2141C27.7513 24.6913 27.998 24.148 28.2035 23.5886C28.3152 23.3095 28.4206 22.9682 28.5199 22.6394C28.4835 22.4597 28.4648 22.2768 28.4641 22.0935C28.4137 21.5426 28.5683 20.9926 28.8983 20.5487C28.9671 20.4373 29.0416 20.3296 29.1217 20.2261C29.2655 19.6709 29.2526 19.0868 29.0845 18.5386C28.9438 18.0963 28.6991 17.6943 28.371 17.366C28.0408 17.0303 27.6373 16.7755 27.1923 16.6216C26.8743 16.5065 26.5377 16.4518 26.1996 16.4603C25.8567 16.481 25.5183 16.5499 25.1946 16.665C24.7811 16.7881 24.4069 17.0169 24.1089 17.3288C23.8461 17.6213 23.6362 17.9571 23.4885 18.3215C23.11 19.1714 23.3086 20.1827 23.5195 21.2249C23.777 22.2038 23.8506 23.2219 23.7366 24.2276C23.6633 24.7124 23.5407 25.1885 23.3706 25.6484C23.1924 26.1001 22.9612 26.5291 22.682 26.9264C22.393 27.3488 22.0487 27.7307 21.6583 28.0617C21.4608 28.2269 21.2536 28.3802 21.0379 28.5208C21.0379 28.6139 21.0069 28.7069 20.9883 28.7938C22.0554 28.6635 23.1783 28.5146 24.3694 28.3843L24.3943 28.4029Z" fill="#FF0066"/>
</svg>
